<?xml version="1.0" encoding="iso-8859-1"?>
<!-- Generator: Adobe Illustrator 19.0.0, SVG Export Plug-In . SVG Version: 6.00 Build 0)  -->
<svg xmlns="http://www.w3.org/2000/svg" xmlns:xlink="http://www.w3.org/1999/xlink" version="1.1" id="Layer_1" x="0px" y="0px" viewBox="0 0 393.991 393.991" style="enable-background:new 0 0 393.991 393.991;" xml:space="preserve" width="512" height="512">
<g>
	<path style="fill:#B3B3B3;" d="M126.348,80.991H91.291c-17.227,0-31.701,14.031-31.701,31.258v57.964   c0,8.284,7.175,14.778,15.459,14.778h67.541c8.284,0,15-6.494,15-14.778v-57.964C157.59,95.022,143.574,80.991,126.348,80.991z"/>
	<g>
		<path d="M128.664,42.108h-25.041c-8.344,0-15.108-6.764-15.108-15.108v0h25.041C121.9,27,128.664,33.764,128.664,42.108    L128.664,42.108z"/>
	</g>
	<path style="fill:#F8D56D;" d="M40.59,193.991V336.73c0,2.761,2.733,5.261,5.494,5.261h301.012c2.761,0,5.494-2.499,5.494-5.261   V193.991H40.59z"/>
	<path style="fill:#FFE48E;" d="M41.084,194.043V336.73c0,2.761,2.239,5,5,5H196.59V194.043H41.084z"/>
	<path style="fill:#C6C7C6;" d="M266.59,383.991c-8.284,0-15-6.716-15-15v-104c0-8.284,6.716-15,15-15s15,6.716,15,15v104   C281.59,377.275,274.874,383.991,266.59,383.991z"/>
	<path style="fill:#A8A8A8;" d="M278.59,393.991h-24c-8.284,0-15-6.716-15-15s6.716-15,15-15h24c8.284,0,15,6.716,15,15   S286.874,393.991,278.59,393.991z"/>
	<g>
		<path style="fill:#DCDCDC;" d="M127.59,383.991c-8.284,0-15-6.716-15-15v-104c0-8.284,6.716-15,15-15s15,6.716,15,15v104    C142.59,377.275,135.874,383.991,127.59,383.991z"/>
		<path style="fill:#B3B3B3;" d="M139.59,393.991h-24c-8.284,0-15-6.716-15-15s6.716-15,15-15h24c8.284,0,15,6.716,15,15    S147.874,393.991,139.59,393.991z"/>
	</g>
	<g>
		<path style="fill:#42D4CB;" d="M220.59,75.991c-8.284,0-15-6.716-15-15v-27c0-8.284,6.716-15,15-15s15,6.716,15,15v27    C235.59,69.275,228.874,75.991,220.59,75.991z"/>
		<path style="fill:#A8A8A8;" d="M256.59,75.991c-8.284,0-15-6.716-15-15v-27c0-8.284,6.716-15,15-15c8.284,0,15,6.716,15,15v27    C271.59,69.275,264.874,75.991,256.59,75.991z"/>
		<path style="fill:#42D4CB;" d="M292.59,75.991c-8.284,0-15-6.716-15-15v-27c0-8.284,6.716-15,15-15s15,6.716,15,15v27    C307.59,69.275,300.874,75.991,292.59,75.991z"/>
		<path style="fill:#A8A8A8;" d="M328.59,75.991c-8.284,0-15-6.716-15-15v-27c0-8.284,6.716-15,15-15s15,6.716,15,15v27    C343.59,69.275,336.874,75.991,328.59,75.991z"/>
	</g>
	<g>
		<path style="fill:#7A7B7B;" d="M212.59,126.991c-8.284,0-15-6.716-15-15v-9c0-8.284,6.716-15,15-15s15,6.716,15,15v9    C227.59,120.275,220.874,126.991,212.59,126.991z"/>
		<path style="fill:#7A7B7B;" d="M335.59,126.991c-8.284,0-15-6.716-15-15v-9c0-8.284,6.716-15,15-15s15,6.716,15,15v9    C350.59,120.275,343.874,126.991,335.59,126.991z"/>
	</g>
	<path style="fill:#646565;" d="M290.59,270.991h-49c-8.284,0-15-6.716-15-15s6.716-15,15-15h49c8.284,0,15,6.716,15,15   S298.874,270.991,290.59,270.991z"/>
	<path style="fill:#7A7B7B;" d="M151.59,270.991h-49c-8.284,0-15-6.716-15-15s6.716-15,15-15h49c8.284,0,15,6.716,15,15   S159.874,270.991,151.59,270.991z"/>
	<path style="fill:#E4C565;" d="M352.59,111.991h-156c-8.284,0-15-6.716-15-15s6.716-15,15-15h156c8.284,0,15,6.716,15,15   S360.874,111.991,352.59,111.991z"/>
	<path style="fill:#FE8E9C;" d="M108.59,21.273c-19.04,0-34.53,14.911-34.53,33.238s15.49,33.237,34.53,33.237   s34.53-14.91,34.53-33.237S127.63,21.273,108.59,21.273z"/>
	<path style="fill:#E4C565;" d="M361.778,199.865H31.401c-2.761,0-5-2.239-5-5v-32.652c0-2.761,2.239-5,5-5h330.377   c2.761,0,5,2.239,5,5v32.652C366.778,197.626,364.54,199.865,361.778,199.865z"/>
	<path style="fill:#F8D56D;" d="M196.59,199.865H31.401c-2.761,0-5-2.239-5-5v-32.652c0-2.761,2.239-5,5-5H196.59V199.865z"/>
	<path style="fill:#7A7B7B;" d="M139.988,45.108h-36.365C82.198,45.108,65.928,22.612,77.192,0l36.365,0   C134.982,0,151.251,22.496,139.988,45.108z"/>
</g>















</svg>
