<?xml version="1.0" encoding="iso-8859-1"?>
<!-- Generator: Adobe Illustrator 19.0.0, SVG Export Plug-In . SVG Version: 6.00 Build 0)  -->
<svg xmlns="http://www.w3.org/2000/svg" xmlns:xlink="http://www.w3.org/1999/xlink" version="1.1" id="Layer_1" x="0px" y="0px" viewBox="0 0 394.8 394.8" style="enable-background:new 0 0 394.8 394.8;" xml:space="preserve" width="512" height="512">
<g>
	<g>
		<path style="fill:#C4C3C4;" d="M337.4,34.8c0-8.284-6.716-15-15-15h-250c-8.284,0-15,6.716-15,15v345c0,8.284,6.716,15,15,15h250    c8.284,0,15-6.716,15-15V34.8z"/>
		<path style="fill:#DCDCDC;" d="M197.4,19.8h-125c-8.284,0-15,6.716-15,15v345c0,8.284,6.716,15,15,15h125V19.8z"/>
		<path style="fill:#FE8E9C;" d="M163.9,145.3c-9.665,0-17.5,7.835-17.5,17.5v75c0,3.631,1.106,7.003,3,9.8v56.2    c0,8.284,6.716,15,15,15s15-6.716,15-15v-57.891c1.271-2.425,2-5.18,2-8.109v-75C181.4,153.135,173.565,145.3,163.9,145.3z"/>
		<path style="fill:#D37C8A;" d="M240.4,147.8c-1.756,0-3.434,0.317-5,0.872c-1.566-0.554-3.244-0.872-5-0.872    c-2.135,0-4.162,0.453-6,1.257c-1.838-0.804-3.865-1.257-6-1.257c-8.284,0-15,6.716-15,15v42c0,7.257,5.153,13.309,12,14.699    V303.8c0,8.284,6.716,15,15,15s15-6.716,15-15v-84.872c5.822-2.061,10-7.6,10-14.128v-42C255.4,154.516,248.684,147.8,240.4,147.8    z"/>
	</g>
	<g>
		<path style="fill:#4FA6A2;" d="M337.4,33.8c0-8.284-6.716-15-15-15h-250c-8.284,0-15,6.716-15,15v42h280V33.8z"/>
	</g>
	<g>
		<path style="fill:#42D4CB;" d="M197.4,18.8h-125c-8.284,0-15,6.716-15,15v42h140V18.8z"/>
	</g>
	<path style="fill:#FE8E9C;" d="M148.4,58.8h-34c-8.284,0-15-6.716-15-15V15c0-5.336,2.835-10.271,7.446-12.959   c4.61-2.688,10.302-2.724,14.945-0.093l9.608,5.441l9.608-5.441c4.646-2.63,10.336-2.595,14.945,0.093   C160.565,4.729,163.4,9.664,163.4,15v28.8C163.4,52.084,156.684,58.8,148.4,58.8z"/>
</g>















</svg>
