<?xml version="1.0" encoding="iso-8859-1"?>
<!-- Generator: Adobe Illustrator 19.0.0, SVG Export Plug-In . SVG Version: 6.00 Build 0)  -->
<svg xmlns="http://www.w3.org/2000/svg" xmlns:xlink="http://www.w3.org/1999/xlink" version="1.1" id="Layer_1" x="0px" y="0px" viewBox="0 0 424.006 424.006" style="enable-background:new 0 0 424.006 424.006;" xml:space="preserve" width="512" height="512">
<g>
	<path style="fill:#F8D56D;" d="M212.003,134.503c-8.284,0-15,6.716-15,15v10c0,8.284,6.716,15,15,15s15-6.716,15-15v-10   C227.003,141.219,220.287,134.503,212.003,134.503z"/>
	<path style="fill:#FFE48E;" d="M212.003,134.503c-8.284,0-15,6.716-15,15v10c0,8.284,6.716,15,15,15V134.503z"/>
	<path style="fill:#C6C7C6;" d="M241.003,30.503c0-8.284-6.716-15-15-15h-29c-8.284,0-15,6.716-15,15s6.716,15,15,15v92   c0,8.284,6.716,15,15,15s15-6.716,15-15v-92.05C234.818,44.935,241.003,38.449,241.003,30.503z"/>
	<path style="fill:#DCDCDC;" d="M212.003,15.503h-15c-8.284,0-15,6.716-15,15s6.716,15,15,15v92c0,8.284,6.716,15,15,15   L212.003,15.503z"/>
	<path style="fill:#C6C7C6;" d="M277.447,134.643l-54.601-57.125c-2.83-2.961-6.748-4.636-10.843-4.636s-8.014,1.675-10.843,4.636   l-54.601,57.125c-4.149,4.341-5.31,10.987-2.949,16.509s7.787,9.351,13.792,9.351h109.202c6.005,0,11.432-3.829,13.792-9.351   S281.597,138.984,277.447,134.643z"/>
	<path style="fill:#DCDCDC;" d="M212.003,72.882c-4.096,0-8.014,1.675-10.843,4.636l-54.601,57.125   c-4.149,4.341-5.31,10.987-2.949,16.509s7.787,9.351,13.792,9.351h54.601V72.882z"/>
	<g>
		<path style="fill:#646565;" d="M411.614,180.739c-8.16-1.444-15.94,4.002-17.383,12.16L376.27,294.503h-33.268    c-8.284,0-15,6.716-15,15s6.716,15,15,15h30v69c0,8.284,6.716,15,15,15s15-6.716,15-15v-77.882l20.771-117.5    C425.216,189.963,419.771,182.181,411.614,180.739z"/>
		<path style="fill:#7A7B7B;" d="M81.003,294.503H47.735L29.774,192.898c-1.442-8.157-9.223-13.604-17.383-12.16    c-8.157,1.442-13.602,9.224-12.16,17.382l20.771,117.5v77.882c0,8.284,6.716,15,15,15s15-6.716,15-15v-69h30    c8.284,0,15-6.716,15-15S89.287,294.503,81.003,294.503z"/>
	</g>
	<path style="fill:#FFE48E;" d="M152.003,261.503h-60c-8.284,0-15-6.716-15-15s6.716-15,15-15h60c8.284,0,15,6.716,15,15   S160.287,261.503,152.003,261.503z"/>
	<path style="fill:#F8D56D;" d="M331.003,261.503h-60c-8.284,0-15-6.716-15-15s6.716-15,15-15h60c8.284,0,15,6.716,15,15   S339.287,261.503,331.003,261.503z"/>
	<path style="fill:#51A7A6;" d="M360.093,257.503c0-8.284-6.902-15-15.186-15H79.099c-8.284,0-15.186,6.716-15.186,15   c0,7.353,5.09,13.458,12.09,14.741v121.038c0,8.284,6.716,15,15,15s15-6.716,15-15v-2.779h212v2.779c0,8.284,6.716,15,15,15   s15-6.716,15-15V272.244C355.003,270.961,360.093,264.856,360.093,257.503z"/>
	<path style="fill:#42D4CB;" d="M212.003,242.503H79.099c-8.284,0-15.186,6.716-15.186,15c0,7.353,5.09,13.458,12.09,14.741v121.038   c0,8.284,6.716,15,15,15s15-6.716,15-15v-2.779h106V242.503z"/>
</g>















</svg>
