<?xml version="1.0" encoding="iso-8859-1"?>
<!-- Generator: Adobe Illustrator 19.0.0, SVG Export Plug-In . SVG Version: 6.00 Build 0)  -->
<svg xmlns="http://www.w3.org/2000/svg" xmlns:xlink="http://www.w3.org/1999/xlink" version="1.1" id="Layer_1" x="0px" y="0px" viewBox="0 0 402.501 402.501" style="enable-background:new 0 0 402.501 402.501;" xml:space="preserve" width="512" height="512">
<g>
	<g>
		<g>
			<path style="fill:#51A7A6;" d="M386.063,177.799l15.47-40.964c2.497-6.611,0.041-14.068-5.896-17.901     c-5.937-3.832-13.743-3.002-18.742,1.996l-34.139,34.139c-0.238-0.066-0.467-0.147-0.708-0.207l-181.649-45.089     c-37.836-9.392-78.286-0.075-108.201,24.923c-12.239,10.227-19.414,25.239-19.686,41.187     c-0.271,15.947,6.389,31.195,18.263,41.823l0.511,0.458c0.004,0.003,0.007,0.006,0.01,0.009     c22.763,20.375,51.935,31.276,81.772,31.276c9.859,0,19.791-1.19,29.587-3.622l179.394-44.53c0.389-0.096,0.762-0.22,1.142-0.333     l33.706,33.706c2.896,2.897,6.737,4.394,10.611,4.394c2.809,0,5.635-0.788,8.131-2.398c5.938-3.833,8.394-11.29,5.896-17.901     L386.063,177.799z"/>
			<path style="fill:#42D4CB;" d="M206.999,121.34l-46.602-11.568c-37.836-9.392-78.286-0.075-108.201,24.923     c-12.239,10.227-19.414,25.239-19.686,41.187c-0.271,15.947,6.389,31.195,18.263,41.823l0.511,0.458     c0.004,0.003,0.007,0.006,0.01,0.009c22.763,20.375,51.935,31.276,81.772,31.276c9.859,0,19.791-1.19,29.587-3.622L207,234.818     L206.999,121.34z"/>
			<circle style="fill:#DCDCDC;" cx="116.781" cy="175.779" r="13.034"/>
		</g>
	</g>
	<polygon style="fill:#C6C7C6;" points="57.075,255.315 94.506,296.315 207,296.315 307.101,296.315 344.531,255.315    207.486,255.315  "/>
	<polygon style="fill:#DCDCDC;" points="57.075,255.315 94.506,296.315 207,296.315 207.072,255.315  "/>
	<path style="fill:#A8A8A8;" d="M384,264.315H15c-8.284,0-15-6.716-15-15s6.716-15,15-15h369c8.284,0,15,6.716,15,15   S392.284,264.315,384,264.315z"/>
	<path style="fill:#B3B3B3;" d="M207,264.315H15c-8.284,0-15-6.716-15-15s6.716-15,15-15h192L207,264.315z"/>
</g>















</svg>
