<?xml version="1.0" encoding="iso-8859-1"?>
<!-- Generator: Adobe Illustrator 19.0.0, SVG Export Plug-In . SVG Version: 6.00 Build 0)  -->
<svg xmlns="http://www.w3.org/2000/svg" xmlns:xlink="http://www.w3.org/1999/xlink" version="1.1" id="Layer_1" x="0px" y="0px" viewBox="0 0 403 403" style="enable-background:new 0 0 403 403;" xml:space="preserve" width="512" height="512">
<g>
	<path style="fill:#B3B3B3;" d="M288.709,321.938c-1.496,0-3.016-0.225-4.519-0.7c-7.9-2.493-12.283-10.919-9.79-18.819   l14.716-46.625c1.489-4.719,0.666-9.715-2.26-13.707c-2.925-3.991-7.441-6.28-12.39-6.28h-12.739c-8.284,0-15-6.716-15-15   s6.716-15,15-15h12.739c14.612,0,27.948,6.759,36.586,18.545c8.639,11.785,11.071,26.537,6.672,40.471l-14.716,46.625   C300.99,317.847,295.079,321.938,288.709,321.938z"/>
	<path style="fill:#C6C7C6;" d="M272.929,149.529c-2.838-3.048-6.814-4.529-10.979-4.529H98.13c-4.165,0-8.141,1.481-10.979,4.529   c-2.837,3.048-4.28,7.013-3.983,11.167L97.16,356.053l-5.25,22.162c-1.399,5.917-0.039,12.279,3.733,17.047   c3.772,4.769,9.422,7.738,15.502,7.738h137.789c6.08,0,11.73-2.985,15.502-7.753c3.772-4.768,5.132-11.021,3.733-16.937   l-5.25-22.256l13.992-195.326C277.21,156.574,275.767,152.577,272.929,149.529z"/>
	<path style="fill:#DCDCDC;" d="M200.49,145H98.13c-4.165,0-8.141,1.481-10.979,4.529c-2.837,3.048-4.28,7.013-3.983,11.167   L97.16,356.053l-5.25,22.162c-1.399,5.917-0.039,12.279,3.733,17.047c3.772,4.769,9.422,7.738,15.502,7.738h89.344V145z"/>
	<path style="fill:#51A7A6;" d="M201.49,30h-6c-8.284,0-15-6.716-15-15s6.716-15,15-15h6c8.284,0,15,6.716,15,15   S209.774,30,201.49,30z"/>
	<path style="fill:#42D4CB;" d="M201.49,30h-6c-8.284,0-15-6.716-15-15s6.716-15,15-15h6V30z"/>
	<g>
		<g>
			<g>
				<path style="fill:#51A7A6;" d="M199.383,132.096H172.49c-23.159,0-42-18.841-42-42s18.841-42,42-42h89c4.962,0,9-4.038,9-9      s-4.038-9-9-9h-26c-8.284,0-15-6.716-15-15s6.716-15,15-15h26c21.505,0,39,17.495,39,39s-17.495,39-39,39h-89      c-6.617,0-12,5.383-12,12s5.383,12,12,12h26.893c8.284,0,15,6.716,15,15S207.667,132.096,199.383,132.096z"/>
			</g>
		</g>
	</g>
	<g>
		<g>
			<g>
				<path style="fill:#42D4CB;" d="M201.49,48.096h-29c-23.159,0-42,18.841-42,42s18.841,42,42,42h26.893      c0.458,0,0.909-0.028,1.357-0.068v-29.856c-0.444-0.038-0.989-0.076-1.357-0.076H172.49c-6.617,0-12-5.383-12-12s5.383-12,12-12      h29L201.49,48.096z"/>
			</g>
		</g>
	</g>
	<g>
		<path style="fill:#A8A8A8;" d="M276.912,160.728c0.297-4.154-1.146-8.15-3.983-11.198c-2.838-3.048-6.814-4.529-10.979-4.529    H98.13c-4.165,0-8.141,1.481-10.979,4.529c-2.837,3.048-4.28,7.013-3.983,11.167l2.6,36.304h188.546L276.912,160.728z"/>
	</g>
	<g>
		<path style="fill:#B3B3B3;" d="M200.49,145H98.13c-4.165,0-8.141,1.481-10.979,4.529c-2.837,3.048-4.28,7.013-3.983,11.167    l2.6,36.304H200.49V145z"/>
	</g>
</g>















</svg>
