<?xml version="1.0" encoding="iso-8859-1"?>
<!-- Generator: Adobe Illustrator 19.0.0, SVG Export Plug-In . SVG Version: 6.00 Build 0)  -->
<svg xmlns="http://www.w3.org/2000/svg" xmlns:xlink="http://www.w3.org/1999/xlink" version="1.1" id="Layer_1" x="0px" y="0px" viewBox="0 0 399 399" style="enable-background:new 0 0 399 399;" xml:space="preserve" width="512" height="512">
<g>
	<path style="fill:#EFDEE0;" d="M305.615,214.12l50.252-16.101c5.254,9.72,16.337,14.207,26.84,10.842   c11.927-3.822,18.53-16.49,14.708-28.417c-1.872-5.843-5.882-10.34-10.898-13.019c2.524-5.096,3.175-11.085,1.303-16.929   c-3.822-11.927-16.579-18.47-28.506-14.648c-10.503,3.365-16.97,13.289-15.596,24.252l-50.252,16.101L305.615,214.12z"/>
	<path style="fill:#D37C8A;" d="M312.45,184.255c-8.869-27.232-36.199-43.995-64.494-39.557l-15.687,2.46v-20.367   c0-13.688-11.096-24.783-24.783-24.783h-13.28c-44.695,0-82.949,27.556-98.715,66.604l-6.106,0.958   c-13.306,2.087-23.113,13.551-23.113,27.02v43.797l263.632-2.54L312.45,184.255z"/>
	<path style="fill:#FE8E9C;" d="M207.486,102.008h-6.683h-6.597c-44.695,0-82.949,27.556-98.715,66.604l-6.106,0.958   c-13.306,2.087-23.113,13.551-23.113,27.02v43.797l141.213-1.27V102.008z"/>
	<polygon style="fill:#C6C7C6;" points="57.075,255.5 94.506,296.5 207,296.5 307.101,296.5 344.531,255.5 207.486,255.5  "/>
	<polygon style="fill:#DCDCDC;" points="57.075,255.5 94.506,296.5 207,296.5 207.072,255.5  "/>
	<path style="fill:#A8A8A8;" d="M384,264.5H15c-8.284,0-15-6.716-15-15s6.716-15,15-15h369c8.284,0,15,6.716,15,15   S392.284,264.5,384,264.5z"/>
	<path style="fill:#B3B3B3;" d="M207,264.5H15c-8.284,0-15-6.716-15-15s6.716-15,15-15h192L207,264.5z"/>
</g>















</svg>
