<?xml version="1.0" encoding="iso-8859-1"?>
<!-- Generator: Adobe Illustrator 19.0.0, SVG Export Plug-In . SVG Version: 6.00 Build 0)  -->
<svg xmlns="http://www.w3.org/2000/svg" xmlns:xlink="http://www.w3.org/1999/xlink" version="1.1" id="Layer_1" x="0px" y="0px" viewBox="0 0 407.294 407.294" style="enable-background:new 0 0 407.294 407.294;" xml:space="preserve" width="512" height="512">
<g>
	<path style="fill:#646565;" d="M323.591,229.581c-4.37,0-8.702-1.9-11.667-5.561L203.647,90.309L95.369,224.021   c-5.214,6.438-14.659,7.431-21.097,2.217c-6.438-5.213-7.431-14.659-2.217-21.097L191.99,57.034   c2.848-3.517,7.132-5.56,11.657-5.56s8.809,2.043,11.657,5.56l119.935,148.107c5.213,6.438,4.221,15.884-2.217,21.097   C330.244,228.487,326.906,229.581,323.591,229.581z"/>
	<path style="fill:#7A7B7B;" d="M203.647,90.309L95.369,224.021c-5.214,6.438-14.659,7.431-21.097,2.217   c-6.438-5.213-7.431-14.659-2.217-21.097L191.99,57.034c2.848-3.517,7.132-5.56,11.657-5.56V90.309z"/>
	<path style="fill:#51A7A6;" d="M349.731,355.82H203.647H57.562C25.771,355.82,0,330.048,0,298.257v-37.114   c0-31.791,25.771-57.562,57.562-57.562h292.169c31.791,0,57.562,25.771,57.562,57.562v37.114   C407.294,330.048,381.522,355.82,349.731,355.82z"/>
	<path style="fill:#42D4CB;" d="M203.647,355.82H57.562C25.771,355.82,0,330.048,0,298.257v-37.114   c0-31.791,25.771-57.562,57.562-57.562h146.085V355.82z"/>
	<g>
		<g>
			<path style="fill:#F8D56D;" d="M114.647,248.147c0-6.904-5.596-12.5-12.5-12.5h-47c-6.904,0-12.5,5.596-12.5,12.5v61     c0,6.904,5.596,12.5,12.5,12.5h47c6.904,0,12.5-5.596,12.5-12.5V248.147z M89.647,296.647h-22v-36h22V296.647z"/>
			<path style="fill:#F8D56D;" d="M185.316,235.647h-46.748c-6.903,0-12.921,5.954-12.921,12.858v60.789     c0,6.903,5.597,12.5,12.5,12.5s12.5-5.597,12.5-12.5v-11.647h34.669c6.903,0,12.331-5.534,12.331-12.437v-36.705     C197.647,241.601,192.219,235.647,185.316,235.647z M172.647,272.647h-22v-12h22V272.647z"/>
			<path style="fill:#E4C565;" d="M268.726,260.647c6.903,0,12.5-5.597,12.5-12.5c0-6.904-5.597-12.5-12.5-12.5h-46.748     c-6.903,0-12.331,5.954-12.331,12.858v60.789c0,6.903,5.428,12.353,12.331,12.353h46.748c6.903,0,12.5-5.597,12.5-12.5     c0-6.904-5.597-12.5-12.5-12.5h-34.079v-5h34c6.904,0,12.5-5.596,12.5-12.5s-5.596-12.5-12.5-12.5h-34v-6H268.726z"/>
			<path style="fill:#E4C565;" d="M352.147,236.005c-6.903,0-12.5,5.596-12.5,12.5v24.029l-24.345-31.649     c-3.263-4.243-8.989-5.937-14.056-4.214c-5.067,1.723-8.599,6.482-8.599,11.834v60.789c0,6.903,5.597,12.5,12.5,12.5     s12.5-5.597,12.5-12.5v-24.029l24.46,31.649c2.412,3.137,6.163,4.881,9.971,4.881c1.343,0,2.737-0.217,4.058-0.667     c5.067-1.723,8.511-6.482,8.511-11.834v-60.789C364.647,241.601,359.05,236.005,352.147,236.005z"/>
		</g>
	</g>
</g>















</svg>
