<?xml version="1.0" encoding="iso-8859-1"?>
<!-- Generator: Adobe Illustrator 19.0.0, SVG Export Plug-In . SVG Version: 6.00 Build 0)  -->
<svg xmlns="http://www.w3.org/2000/svg" xmlns:xlink="http://www.w3.org/1999/xlink" version="1.1" id="Layer_1" x="0px" y="0px" viewBox="0 0 402.889 402.889" style="enable-background:new 0 0 402.889 402.889;" xml:space="preserve" width="512" height="512">
<g>
	<path style="fill:#646565;" d="M230.34,137.914c-8.284,0-15-6.716-15-15v-20.493c0-0.898-0.73-1.628-1.629-1.628h-24.533   c-0.898,0-1.629,0.73-1.629,1.628v20.493c0,8.284-6.716,15-15,15s-15-6.716-15-15v-20.493c0-17.44,14.188-31.628,31.629-31.628   h24.533c17.44,0,31.629,14.188,31.629,31.628v20.493C245.34,131.198,238.624,137.914,230.34,137.914z"/>
	<path style="fill:#7A7B7B;" d="M201.444,100.793h-12.267c-0.898,0-1.629,0.73-1.629,1.628v20.493c0,8.284-6.716,15-15,15   s-15-6.716-15-15v-20.493c0-17.44,14.188-31.628,31.629-31.628h12.267V100.793z"/>
	<path style="fill:#A8A8A8;" d="M260.952,113.096H141.937c-64.883,0-117.492,52.604-117.492,117.486v86.014   c0,8.284,6.627,15.25,14.912,15.25s14.912-6.75,14.912-14.75h294.354c0,8,6.627,14.75,14.912,14.75s14.912-6.965,14.912-15.25   v-86.014C378.444,165.7,325.835,113.096,260.952,113.096z"/>
	<path style="fill:#B3B3B3;" d="M201.444,113.096h-59.508c-64.883,0-117.492,52.604-117.492,117.486v86.014   c0,8.284,6.627,15.25,14.912,15.25s14.912-6.75,14.912-14.75h147.177V113.096z"/>
	<path style="fill:#E4C565;" d="M387.889,302.096H15c-8.284,0-15,6.716-15,15s6.716,15,15,15h372.889c8.284,0,15-6.716,15-15   S396.173,302.096,387.889,302.096z"/>
	<path style="fill:#F8D56D;" d="M201.444,302.096H15c-8.284,0-15,6.716-15,15s6.716,15,15,15h186.444V302.096z"/>
	<path style="fill:#DCDCDC;" d="M83.444,245.582c-8.284,0-15-6.716-15-15c0-40.655,32.969-73.729,73.492-73.729   c8.284,0,15,6.716,15,15s-6.716,15-15,15c-23.981,0-43.492,19.617-43.492,43.729C98.444,238.866,91.729,245.582,83.444,245.582z"/>
</g>















</svg>
