<?xml version="1.0" encoding="iso-8859-1"?>
<!-- Generator: Adobe Illustrator 19.0.0, SVG Export Plug-In . SVG Version: 6.00 Build 0)  -->
<svg xmlns="http://www.w3.org/2000/svg" xmlns:xlink="http://www.w3.org/1999/xlink" version="1.1" id="Layer_1" x="0px" y="0px" viewBox="0 0 429.865 429.865" style="enable-background:new 0 0 429.865 429.865;" xml:space="preserve" width="512" height="512">
<g>
	<path style="fill:#D37C8A;" d="M416.966,131.504c-4.102-7.199-13.262-9.708-20.459-5.607l-171,97.429   c-7.198,4.102-9.708,13.261-5.607,20.459c2.766,4.854,7.833,7.577,13.047,7.577c2.517,0,5.069-0.635,7.412-1.97l171-97.429   C418.556,147.862,421.067,138.703,416.966,131.504z"/>
	<path style="fill:#C6C7C6;" d="M389.215,224.569c-7.929-2.401-16.303,2.081-18.705,10.01l-1.318,4.354H60.674l-1.318-4.354   c-2.402-7.929-10.778-12.41-18.705-10.008c-7.928,2.402-12.408,10.776-10.006,18.704l19.196,63.352   c8.392,27.698,33.476,46.306,62.417,46.306h205.35c28.941,0,54.025-18.608,62.417-46.306l19.196-63.353   C401.623,235.346,397.143,226.972,389.215,224.569z"/>
	<path style="fill:#DCDCDC;" d="M214.933,238.933H60.674l-1.318-4.354c-2.402-7.929-10.778-12.41-18.705-10.008   c-7.928,2.402-12.408,10.776-10.006,18.704l19.196,63.352c8.392,27.698,33.476,46.306,62.417,46.306h102.675V238.933z"/>
	<path style="fill:#42D4CB;" d="M243.933,76.933h-26c-8.284,0-15,6.716-15,15s6.716,15,15,15h26c4.962,0,9,4.038,9,9s-4.038,9-9,9   h-89c-23.159,0-42,18.841-42,42s18.841,42,42,42h26.893c8.284,0,15-6.716,15-15s-6.716-15-15-15h-26.893c-6.617,0-12-5.383-12-12   s5.383-12,12-12h89c21.505,0,39-17.495,39-39S265.438,76.933,243.933,76.933z"/>
	<path style="fill:#646565;" d="M414.865,222.933H15c-8.284,0-15,6.716-15,15s6.716,15,15,15h399.865c8.284,0,15-6.716,15-15   S423.149,222.933,414.865,222.933z"/>
	<path style="fill:#7A7B7B;" d="M214.933,222.933H15c-8.284,0-15,6.716-15,15s6.716,15,15,15h199.933V222.933z"/>
</g>















</svg>
