<?xml version="1.0" encoding="iso-8859-1"?>
<!-- Generator: Adobe Illustrator 19.0.0, SVG Export Plug-In . SVG Version: 6.00 Build 0)  -->
<svg xmlns="http://www.w3.org/2000/svg" xmlns:xlink="http://www.w3.org/1999/xlink" version="1.1" id="Layer_1" x="0px" y="0px" viewBox="0 0 330 330" style="enable-background:new 0 0 330 330;" xml:space="preserve" width="512" height="512">
<g>
	<polygon style="fill:#C6C7C6;" points="282.518,330 243.346,310 204.173,330 165,310 125.827,330 86.654,310 47.482,330    47.482,275.001 47.482,220 47.482,165 47.482,110 47.482,54.999 47.482,0 86.654,20 125.827,0 165,20 204.173,0 243.346,20    282.518,0 282.518,54.999 282.518,110 282.518,165 282.518,220 282.518,275.001  "/>
	<polygon style="fill:#DCDCDC;" points="165,310 125.827,330 86.654,310 47.482,330 47.482,275.001 47.482,220 47.482,165    47.482,110 47.482,54.999 47.482,0 86.654,20 125.827,0 165,20  "/>
	<path style="fill:#A8A8A8;" d="M214,102h-96c-8.284,0-15-6.716-15-15s6.716-15,15-15h96c8.284,0,15,6.716,15,15   S222.284,102,214,102z"/>
	<path style="fill:#B3B3B3;" d="M165,102h-47c-8.284,0-15-6.716-15-15s6.716-15,15-15h47V102z"/>
	<path style="fill:#A8A8A8;" d="M173,169h-55c-8.284,0-15-6.716-15-15s6.716-15,15-15h55c8.284,0,15,6.716,15,15   S181.284,169,173,169z"/>
	<path style="fill:#B3B3B3;" d="M165,169h-47c-8.284,0-15-6.716-15-15s6.716-15,15-15h47V169z"/>
	<path style="fill:#A8A8A8;" d="M173,218h-55c-8.284,0-15-6.716-15-15s6.716-15,15-15h55c8.284,0,15,6.716,15,15   S181.284,218,173,218z"/>
	<path style="fill:#B3B3B3;" d="M165,218h-47c-8.284,0-15-6.716-15-15s6.716-15,15-15h47V218z"/>
	<path style="fill:#A8A8A8;" d="M173,267h-55c-8.284,0-15-6.716-15-15s6.716-15,15-15h55c8.284,0,15,6.716,15,15   S181.284,267,173,267z"/>
	<path style="fill:#B3B3B3;" d="M165,267h-47c-8.284,0-15-6.716-15-15s6.716-15,15-15h47V267z"/>
</g>















</svg>
