<?xml version="1.0" encoding="iso-8859-1"?>
<!-- Generator: Adobe Illustrator 19.0.0, SVG Export Plug-In . SVG Version: 6.00 Build 0)  -->
<svg xmlns="http://www.w3.org/2000/svg" xmlns:xlink="http://www.w3.org/1999/xlink" version="1.1" id="Layer_1" x="0px" y="0px" viewBox="0 0 358.605 358.605" style="enable-background:new 0 0 358.605 358.605;" xml:space="preserve" width="512" height="512">
<g>
	<g>
		<path style="fill:#A8A8A8;" d="M266.396,155.925l-182.207,18.22c-30.797,3.08-59.043-17.329-65.79-47.535l-2.638-11.811    C9.538,86.938,26.185,59.074,53.668,51.351l0,0c70.949-19.938,144.836-27.326,218.329-21.832l0,0    c28.468,2.128,50.303,26.144,49.72,54.685l-0.247,12.1C320.838,127.248,297.193,152.845,266.396,155.925z"/>
		<path style="fill:#B3B3B3;" d="M168.37,165.727l-84.181,8.418c-30.797,3.08-59.043-17.329-65.79-47.535l-2.638-11.811    C9.538,86.938,26.185,59.074,53.668,51.351l0,0c37.485-10.534,75.791-17.565,114.425-21.044L168.37,165.727z"/>
		<path style="fill:#C6C7C6;" d="M78.232,260.929V127.556l20.075-5.759c45.785-13.134,94.34-13.134,140.126,0l20.075,5.759v133.373    H78.232z"/>
		<path style="fill:#DCDCDC;" d="M78.232,260.929V127.556l20.075-5.759c22.892-6.567,46.477-9.851,70.062-9.851l0.001,148.983    H78.232z"/>
	</g>
	<path style="fill:#E4C565;" d="M14.99,330.847c-6.861,0-13.051-4.736-14.62-11.71c-1.819-8.082,3.258-16.108,11.34-17.927   l156.266-35.171l84.699-19.063c8.084-1.82,16.109,3.258,17.927,11.34c1.819,8.082-3.258,16.108-11.34,17.927L168.371,296.7   L18.297,330.478C17.188,330.727,16.08,330.847,14.99,330.847z"/>
	<path style="fill:#FFE48E;" d="M14.99,330.847c-6.861,0-13.051-4.736-14.62-11.71c-1.819-8.082,3.258-16.108,11.34-17.927   l156.266-35.171l0.395,30.661L18.297,330.478C17.188,330.727,16.08,330.847,14.99,330.847z"/>
	<g>
		<path style="fill:#E4C565;" d="M327.675,282.371l-41.585,9.36c-17.662,3.975-35.203-7.12-39.178-24.783l-1.414-6.281    c-3.975-17.662,7.12-35.203,24.783-39.178l41.585-9.359c12.672-2.852,25.257,5.109,28.109,17.781l5.481,24.352    C348.308,266.934,340.347,279.519,327.675,282.371z"/>
	</g>
	<path style="fill:#646565;" d="M343.616,327.847c-1.091,0-2.198-0.12-3.307-0.37L99.344,273.244   c-8.083-1.819-13.16-9.845-11.34-17.927c1.819-8.082,9.845-13.159,17.927-11.34l240.965,54.234   c8.083,1.819,13.16,9.845,11.34,17.927C356.666,323.11,350.476,327.847,343.616,327.847z"/>
	<path style="fill:#A8A8A8;" d="M55.198,273.809l153.761,34.607l11.086-49.256L21.432,214.458l-0.991,4.404   C14.866,243.633,30.427,268.234,55.198,273.809z"/>
	<path style="fill:#B3B3B3;" d="M55.198,273.809l113.173,25.472l-0.001-51.752l-0.477-0.107l-146.46-32.964l-0.991,4.404   C14.866,243.633,30.427,268.234,55.198,273.809z"/>
</g>















</svg>
