<?xml version="1.0" encoding="iso-8859-1"?>
<!-- Generator: Adobe Illustrator 19.0.0, SVG Export Plug-In . SVG Version: 6.00 Build 0)  -->
<svg xmlns="http://www.w3.org/2000/svg" xmlns:xlink="http://www.w3.org/1999/xlink" version="1.1" id="Layer_1" x="0px" y="0px" viewBox="0 0 410.679 410.679" style="enable-background:new 0 0 410.679 410.679;" xml:space="preserve" width="512" height="512">
<g>
	<polygon style="fill:#C4C3C4;" points="391.388,298.839 18.506,298.839 18.506,148.309 26.662,141.839 392.173,141.839    392.173,295.21  "/>
	<polygon style="fill:#DCDCDC;" points="204.759,298.839 18.506,298.839 18.506,148.309 26.662,141.839 204.758,141.839  "/>
	<g>
		<path style="fill:#F8D56D;" d="M155.506,49.839c-8.284,0-15,6.716-15,15v32c0,8.284,6.716,15,15,15s15-6.716,15-15v-32    C170.506,56.555,163.79,49.839,155.506,49.839z"/>
		<path style="fill:#F8D56D;" d="M292.506,49.839c-8.284,0-15,6.716-15,15v32c0,8.284,6.716,15,15,15s15-6.716,15-15v-32    C307.506,56.555,300.79,49.839,292.506,49.839z"/>
	</g>
	<path style="fill:#D37C8A;" d="M289.506,217.839h-114c-8.284,0-15-6.716-15-15s6.716-15,15-15h114c8.284,0,15,6.716,15,15   S297.79,217.839,289.506,217.839z"/>
	<path style="fill:#D37C8A;" d="M289.506,272.839h-114c-8.284,0-15-6.716-15-15c0-8.284,6.716-15,15-15h114c8.284,0,15,6.716,15,15   C304.506,266.124,297.79,272.839,289.506,272.839z"/>
	<path style="fill:#646565;" d="M228.677,182.839H112.002c-5.234,0-10.091,2.729-12.813,7.2s-2.916,10.163-0.513,14.813   c9.203,17.803,27.37,28.987,47.411,28.987h73.047c13.532,0,24.371-11.259,24.371-24.792v-11.208   C243.506,189.555,236.961,182.839,228.677,182.839z"/>
	<path style="fill:#7A7B7B;" d="M204.502,182.839h-92.5c-5.234,0-10.091,2.729-12.813,7.2s-2.916,10.163-0.513,14.813   c9.203,17.803,27.37,28.987,47.411,28.987h58.67L204.502,182.839z"/>
	<path style="fill:#646565;" d="M236.801,242.839h-32.04H102.545c-4.9,0-9.491,2.394-12.298,6.411   c-2.806,4.018-3.473,9.152-1.785,13.753l1.609,4.516c3.991,10.883,14.462,18.32,26.054,18.32h88.381h19.545   c15.302,0,27.75-12.574,27.75-27.875C251.801,249.68,245.085,242.839,236.801,242.839z"/>
	<path style="fill:#7A7B7B;" d="M204.761,242.839H102.545c-4.9,0-9.491,2.394-12.298,6.411c-2.806,4.018-3.473,9.152-1.785,13.753   l1.609,4.516c3.991,10.883,14.462,18.32,26.054,18.32h88.381L204.761,242.839z"/>
	<g>
		<path style="fill:#51A7A6;" d="M408.175,90.632c-2.792-4.114-7.44-6.792-12.412-6.792H53.249c-6.146,0-11.669,3.963-13.939,9.674    l-19.872,50.548c-0.7,1.764-0.932,3.777-0.932,5.777h373.667l17.401-45.007C411.41,100.212,410.967,94.746,408.175,90.632z"/>
		<path style="fill:#42D4CB;" d="M204.758,83.839H53.249c-6.146,0-11.669,3.963-13.939,9.674l-19.872,50.548    c-0.7,1.764-0.932,3.777-0.932,5.777h186.249L204.758,83.839z"/>
	</g>
	<g>
		<path style="fill:#51A7A6;" d="M2.504,354.047c2.792,4.114,7.44,6.792,12.412,6.792H357.43c6.146,0,11.669-3.963,13.939-9.674    l19.872-50.548c0.7-1.764,0.932-3.777,0.932-5.777H18.506L1.105,339.846C-0.731,344.466-0.288,349.933,2.504,354.047z"/>
		<path style="fill:#42D4CB;" d="M204.757,360.839H357.43c6.146,0,11.669-3.963,13.939-9.674l19.872-50.548    c0.7-1.764,0.932-3.777,0.932-5.777H204.761L204.757,360.839z"/>
	</g>
</g>















</svg>
