<?xml version="1.0" encoding="iso-8859-1"?>
<!-- Generator: Adobe Illustrator 19.0.0, SVG Export Plug-In . SVG Version: 6.00 Build 0)  -->
<svg xmlns="http://www.w3.org/2000/svg" xmlns:xlink="http://www.w3.org/1999/xlink" version="1.1" id="Layer_1" x="0px" y="0px" viewBox="0 0 422 422" style="enable-background:new 0 0 422 422;" xml:space="preserve" width="512" height="512">
<g>
	<g>
		<path style="fill:#FFE48E;" d="M137,422c-8.284,0-15-6.716-15-15v-13c0-8.284,6.716-15,15-15s15,6.716,15,15v13    C152,415.284,145.284,422,137,422z"/>
		<path style="fill:#F8D56D;" d="M285,422c-8.284,0-15-6.716-15-15v-13c0-8.284,6.716-15,15-15s15,6.716,15,15v13    C300,415.284,293.284,422,285,422z"/>
	</g>
	<path style="fill:#C6C7C6;" d="M284.768,15H261c0-8-6.716-15-15-15h-70c-8.284,0-15,7-15,15h-23.974   C112.199,15,92,35.324,92,60.151v312.974C92,381.409,98.716,388,107,388h208c8.284,0,15-6.591,15-14.875V60.357   C330,35.416,309.709,15,284.768,15z"/>
	<path style="fill:#DCDCDC;" d="M211,0h-35c-8.284,0-15,7-15,15h-23.974C112.199,15,92,35.324,92,60.151v312.974   C92,381.409,98.716,388,107,388h104V0z"/>
	<path style="fill:#646565;" d="M330,60.357C330,35.416,309.709,15,284.768,15H261c0-8-6.716-15-15-15h-70c-8.284,0-15,7-15,15   h-23.974C112.199,15,92,35.324,92,60.151V107h238V60.357z"/>
	<path style="fill:#7A7B7B;" d="M211,0h-35c-8.284,0-15,7-15,15h-23.974C112.199,15,92,35.324,92,60.151V107h119V0z"/>
	<path style="fill:#51A7A6;" d="M237,79h-53c-8.284,0-15-6.716-15-15s6.716-15,15-15h53c8.284,0,15,6.716,15,15S245.284,79,237,79z"/>
	<path style="fill:#42D4CB;" d="M211,79h-27c-8.284,0-15-6.716-15-15s6.716-15,15-15h27V79z"/>
	<path style="fill:#51A7A6;" d="M264,288h-54c-8.284,0-15-6.716-15-15s6.716-15,15-15h54c8.284,0,15,6.716,15,15   S272.284,288,264,288z"/>
	<path style="fill:#42D4CB;" d="M211,288h-1c-8.284,0-15-6.716-15-15s6.716-15,15-15h1V288z"/>
	<path style="fill:#42D4CB;" d="M172,288h-10c-8.284,0-15-6.716-15-15s6.716-15,15-15h10c8.284,0,15,6.716,15,15   S180.284,288,172,288z"/>
	<path style="fill:#42D4CB;" d="M172,329h-10c-8.284,0-15-6.716-15-15s6.716-15,15-15h10c8.284,0,15,6.716,15,15   S180.284,329,172,329z"/>
	<path style="fill:#51A7A6;" d="M264,329h-54c-8.284,0-15-6.716-15-15s6.716-15,15-15h54c8.284,0,15,6.716,15,15   S272.284,329,264,329z"/>
	<path style="fill:#42D4CB;" d="M211,329h-1c-8.284,0-15-6.716-15-15s6.716-15,15-15h1V329z"/>
	<path style="fill:#51A7A6;" d="M216,216h-54c-8.284,0-15-6.716-15-15s6.716-15,15-15h54c8.284,0,15,6.716,15,15   S224.284,216,216,216z"/>
	<path style="fill:#42D4CB;" d="M211,216h-49c-8.284,0-15-6.716-15-15s6.716-15,15-15h49V216z"/>
	<path style="fill:#51A7A6;" d="M264,216h-10c-8.284,0-15-6.716-15-15s6.716-15,15-15h10c8.284,0,15,6.716,15,15   S272.284,216,264,216z"/>
	<path style="fill:#51A7A6;" d="M264,175h-10c-8.284,0-15-6.716-15-15s6.716-15,15-15h10c8.284,0,15,6.716,15,15   S272.284,175,264,175z"/>
	<path style="fill:#51A7A6;" d="M216,175h-54c-8.284,0-15-6.716-15-15s6.716-15,15-15h54c8.284,0,15,6.716,15,15   S224.284,175,216,175z"/>
	<path style="fill:#42D4CB;" d="M211,175h-49c-8.284,0-15-6.716-15-15s6.716-15,15-15h49V175z"/>
</g>















</svg>
