<?xml version="1.0" encoding="iso-8859-1"?>
<!-- Generator: Adobe Illustrator 19.0.0, SVG Export Plug-In . SVG Version: 6.00 Build 0)  -->
<svg xmlns="http://www.w3.org/2000/svg" xmlns:xlink="http://www.w3.org/1999/xlink" version="1.1" id="Layer_1" x="0px" y="0px" viewBox="0 0 378.031 378.031" style="enable-background:new 0 0 378.031 378.031;" xml:space="preserve" width="512" height="512">
<g>
	<g>
		<path style="fill:#C6C7C6;" d="M318.016,167.849c-8.284,0-15-6.716-15-15v-32c0-8.284,6.716-15,15-15s15,6.716,15,15v32    C333.016,161.133,326.3,167.849,318.016,167.849z"/>
		<path style="fill:#DCDCDC;" d="M60.016,167.849c-8.284,0-15-6.716-15-15v-32c0-8.284,6.716-15,15-15s15,6.716,15,15v32    C75.016,161.133,68.3,167.849,60.016,167.849z"/>
	</g>
	<rect x="51.016" y="167.849" style="fill:#F8D56D;" width="276" height="161"/>
	<rect x="51.021" y="167.619" style="fill:#FFE48E;" width="137.995" height="161.162"/>
	<path style="fill:#646565;" d="M363.031,182.619H15c-8.284,0-15-6.716-15-15s6.716-15,15-15h348.031c8.284,0,15,6.716,15,15   S371.315,182.619,363.031,182.619z"/>
	<path style="fill:#E4C565;" d="M328.879,127.275H49.152c-8.396,0-15.203-6.807-15.203-15.203V85.79   c0-32.14,26.148-58.288,58.288-58.288h193.557c32.139,0,58.288,26.148,58.288,58.288v26.282   C344.082,120.468,337.275,127.275,328.879,127.275z"/>
	<path style="fill:#F8D56D;" d="M189.016,127.275H49.152c-8.396,0-15.203-6.807-15.203-15.203V85.79   c0-32.14,26.148-58.288,58.288-58.288h96.779V127.275z"/>
	<path style="fill:#A8A8A8;" d="M212.327,109.849h-46.623c-8.396,0-15.203-6.604-15.203-15s6.807-15,15.203-15h46.623   c8.396,0,15.203,6.604,15.203,15S220.724,109.849,212.327,109.849z"/>
	<path style="fill:#B3B3B3;" d="M189.016,109.849h-23.312c-8.396,0-15.203-6.604-15.203-15s6.807-15,15.203-15h23.312V109.849z"/>
	<rect x="51.021" y="297.849" style="fill:#E4C565;" width="275.989" height="30.932"/>
	<rect x="51.021" y="297.849" style="fill:#F8D56D;" width="137.995" height="30.932"/>
	<path style="fill:#7A7B7B;" d="M189.016,182.619H15c-8.284,0-15-6.716-15-15s6.716-15,15-15h174.016V182.619z"/>
	<path style="fill:#A8A8A8;" d="M212.327,197.849h-46.623c-8.396,0-15.203-6.604-15.203-15c0-8.396,6.807-15,15.203-15h46.623   c8.396,0,15.203,6.604,15.203,15C227.53,191.245,220.724,197.849,212.327,197.849z"/>
	<path style="fill:#B3B3B3;" d="M189.016,197.849h-23.312c-8.396,0-15.203-6.604-15.203-15c0-8.396,6.807-15,15.203-15h23.312   V197.849z"/>
	<g>
		<circle style="fill:#646565;" cx="327.01" cy="328.781" r="21.749"/>
	</g>
	<circle style="fill:#7A7B7B;" cx="51.021" cy="328.781" r="21.749"/>
</g>















</svg>
