<?xml version="1.0" encoding="iso-8859-1"?>
<!-- Generator: Adobe Illustrator 19.0.0, SVG Export Plug-In . SVG Version: 6.00 Build 0)  -->
<svg xmlns="http://www.w3.org/2000/svg" xmlns:xlink="http://www.w3.org/1999/xlink" version="1.1" id="Layer_1" x="0px" y="0px" viewBox="0 0 401.904 401.904" style="enable-background:new 0 0 401.904 401.904;" xml:space="preserve" width="512" height="512">
<g>
	<g>
		<g>
			<g>
				<path style="fill:#51A7A6;" d="M198.845,132h-26.893c-23.159,0-42-18.841-42-42s18.841-42,42-42h89c4.962,0,9-4.038,9-9      s-4.038-9-9-9h-26c-8.284,0-15-6.716-15-15s6.716-15,15-15h26c21.505,0,39,17.495,39,39s-17.495,39-39,39h-89      c-6.617,0-12,5.383-12,12s5.383,12,12,12h26.893c8.284,0,15,6.716,15,15S207.129,132,198.845,132z"/>
			</g>
		</g>
	</g>
	<g>
		<g>
			<g>
				<path style="fill:#42D4CB;" d="M200.952,48h-29c-23.159,0-42,18.841-42,42s18.841,42,42,42h26.893      c0.458,0,0.909-0.028,1.357-0.068v-29.856c-0.444-0.038-0.989-0.076-1.357-0.076h-26.893c-6.617,0-12-5.383-12-12      s5.383-12,12-12h29L200.952,48z"/>
			</g>
		</g>
	</g>
	<g>
		<path style="fill:#7A7B7B;" d="M50.952,312.904c-8.284,0-15-6.716-15-15v-32c0-8.284,6.716-15,15-15s15,6.716,15,15v32    C65.952,306.188,59.236,312.904,50.952,312.904z"/>
		<path style="fill:#646565;" d="M350.952,312.904c-8.284,0-15-6.716-15-15v-32c0-8.284,6.716-15,15-15s15,6.716,15,15v32    C365.952,306.188,359.236,312.904,350.952,312.904z"/>
	</g>
	<path style="fill:#A8A8A8;" d="M334.952,187.808c-8.284,0-15,6.716-15,15v0.009l-238.033,0.148   c-0.005-8.28-6.702-14.991-14.983-14.991c-8.284,0-14.984,6.716-14.984,15v160.14c0,21.336,17.336,38.791,38.672,38.791H311.28   c21.336,0,38.672-17.455,38.672-38.791V202.808C349.952,194.523,343.236,187.808,334.952,187.808z"/>
	<path style="fill:#B3B3B3;" d="M200.952,202.939l-119.033,0.05c-0.005-8.28-6.702-15.003-14.983-15.003   c-8.284,0-14.984,6.704-14.984,14.988v160.14c0,21.336,17.336,38.791,38.672,38.791h110.328L200.952,202.939z"/>
	<path style="fill:#646565;" d="M232.952,175.904h-64c-8.284,0-15-6.716-15-15s6.716-15,15-15h64c8.284,0,15,6.716,15,15   S241.236,175.904,232.952,175.904z"/>
	<path style="fill:#7A7B7B;" d="M200.952,175.904h-32c-8.284,0-15-6.716-15-15s6.716-15,15-15h32V175.904z"/>
	<path style="fill:#C6C7C6;" d="M354.461,189.776c-30.398-17.58-65.015-26.873-100.107-26.873H147.55   c-35.092,0-69.708,9.292-100.107,26.873c-4.636,2.681-7.491,7.63-7.491,12.985v0.143c0,8.284,6.716,15,15,15h292   c8.284,0,15-6.716,15-15v-0.143C361.952,197.406,359.097,192.457,354.461,189.776z"/>
	<path style="fill:#DCDCDC;" d="M200.952,162.904H147.55c-35.092,0-69.708,9.292-100.107,26.873   c-4.636,2.681-7.491,7.63-7.491,12.985v0.143c0,8.284,6.716,15,15,15h146V162.904z"/>
</g>















</svg>
