<?xml version="1.0" encoding="iso-8859-1"?>
<!-- Generator: Adobe Illustrator 19.0.0, SVG Export Plug-In . SVG Version: 6.00 Build 0)  -->
<svg xmlns="http://www.w3.org/2000/svg" xmlns:xlink="http://www.w3.org/1999/xlink" version="1.1" id="Layer_1" x="0px" y="0px" viewBox="0 0 407 407" style="enable-background:new 0 0 407 407;" xml:space="preserve" width="512" height="512">
<g>
	<path style="fill:#C4C3C4;" d="M324,43.623C324,20.083,304.917,1,281.377,1H125.623C102.083,1,83,20.083,83,43.623v320.755   C83,387.917,102.083,407,125.623,407h155.754c23.54,0,42.623-19.083,42.623-42.623V43.623z"/>
	<path style="fill:#DCDCDC;" d="M203,1h-77.377C102.083,1,83,20.083,83,43.623v320.755C83,387.917,102.083,407,125.623,407H203V1z"/>
	<path style="fill:#646565;" d="M83,364.377C83,387.917,102.083,407,125.623,407h155.754c23.54,0,42.623-19.083,42.623-42.623V315   H83V364.377z"/>
	<path style="fill:#7A7B7B;" d="M83,364.377C83,387.917,102.083,407,125.623,407H203v-92H83V364.377z"/>
	<g>
		<path style="fill:#FE8E9C;" d="M166.5,121.5c-9.665,0-17.5,7.835-17.5,17.5v64c0,3.631,1.107,7.003,3,9.8V260    c0,8.284,6.716,15,15,15s15-6.716,15-15v-48.891c1.271-2.425,2-5.18,2-8.109v-64C184,129.335,176.165,121.5,166.5,121.5z"/>
		<path style="fill:#D37C8A;" d="M243,124c-1.568,0-3.079,0.242-4.5,0.689c-1.421-0.446-2.932-0.689-4.5-0.689    c-1.756,0-3.434,0.317-5,0.872c-1.566-0.554-3.244-0.872-5-0.872c-8.284,0-15,6.716-15,15v36c0,6.528,4.178,12.067,10,14.128V260    c0,8.284,6.716,15,15,15s15-6.716,15-15v-71.257c5.296-2.315,9-7.594,9-13.743v-36C258,130.716,251.284,124,243,124z"/>
	</g>
	<path style="fill:#646565;" d="M324,42.623C324,19.083,304.917,0,281.377,0H125.623C102.083,0,83,19.083,83,42.623V81h241V42.623z"/>
	<path style="fill:#7A7B7B;" d="M203,0h-77.377C102.083,0,83,19.083,83,42.623V81h120V0z"/>
	<path style="fill:#F8D56D;" d="M215,368h-23c-8.284,0-15-6.716-15-15s6.716-15,15-15h23c8.284,0,15,6.716,15,15   S223.284,368,215,368z"/>
	<path style="fill:#F8D56D;" d="M215,368h-12h-11c-8.284,0-15-6.716-15-15s6.716-15,15-15h11h12c8.284,0,15,6.716,15,15   S223.284,368,215,368z"/>
	<path style="fill:#FFE48E;" d="M203,368h-11c-8.284,0-15-6.716-15-15s6.716-15,15-15h11V368z"/>
</g>















</svg>
