<?xml version="1.0" encoding="iso-8859-1"?>
<!-- Generator: Adobe Illustrator 19.0.0, SVG Export Plug-In . SVG Version: 6.00 Build 0)  -->
<svg xmlns="http://www.w3.org/2000/svg" xmlns:xlink="http://www.w3.org/1999/xlink" version="1.1" id="Layer_1" x="0px" y="0px" viewBox="0 0 436.765 436.765" style="enable-background:new 0 0 436.765 436.765;" xml:space="preserve" width="512" height="512">
<g>
	<polygon style="fill:#51A7A6;" points="45,186.44 45,368.941 218.383,368.941 391.766,368.941 391.766,186.44 218.383,186.44  "/>
	<rect x="45" y="186.44" style="fill:#42D4CB;" width="173.383" height="182.502"/>
	<g>
		<g>
			<path style="fill:#C6C7C6;" d="M358.592,257.912c-7.965-2.278-16.269,2.33-18.548,10.294l-14.359,50.177h-12.302     c-8.284,0-15,6.716-15,15c0,6.897,4.661,12.691,11,14.444v8.556c0,8.284,6.716,15,15,15c2.058,0,4.019-0.416,5.805-1.166     c2.541,1.977,5.726,3.166,9.195,3.166c8.284,0,15-6.716,15-15v-31.241l14.503-50.682     C371.165,268.495,366.556,260.191,358.592,257.912z"/>
		</g>
		<path style="fill:#C6C7C6;" d="M265.383,377.383c-8.284,0-15-6.716-15-15v-53c0-8.284,6.716-15,15-15s15,6.716,15,15v53    C280.383,370.667,273.667,377.383,265.383,377.383z"/>
	</g>
	<g>
		<rect x="45" y="186.44" style="fill:#FFE48E;" width="89.383" height="182.502"/>
	</g>
	<path style="fill:#B3B3B3;" d="M96.658,255.613H81.625c-4.819,0-8.725-3.906-8.725-8.725v0c0-4.819,3.906-8.725,8.725-8.725h15.033   c4.819,0,8.725,3.906,8.725,8.725v0C105.383,251.707,101.477,255.613,96.658,255.613z"/>
	<path style="fill:#F8D56D;" d="M304.316,237.915l-23.933-25.023v-22.509c0-8.284-6.716-15-15-15s-15,6.716-15,15v22.509   l-23.933,25.023c-3.051,3.192-0.789,8.468,3.627,8.468h70.612C305.104,246.383,307.367,241.107,304.316,237.915z"/>
	<path style="fill:#B3B3B3;" d="M296.383,314.383h-62c-8.284,0-15-6.716-15-15s6.716-15,15-15h62c8.284,0,15,6.716,15,15   S304.667,314.383,296.383,314.383z"/>
	<path style="fill:#C6C7C6;" d="M231.383,333.383c0-8.284-6.716-15-15-15h-12.302l-14.359-50.177   c-2.279-7.964-10.58-12.572-18.548-10.294c-7.964,2.279-12.573,10.583-10.294,18.548l14.503,50.682v31.241c0,8.284,6.716,15,15,15   c3.469,0,6.654-1.189,9.195-3.166c1.786,0.75,3.746,1.166,5.805,1.166c8.284,0,15-6.716,15-15v-8.556   C226.722,346.074,231.383,340.28,231.383,333.383z"/>
	<path style="fill:#DCDCDC;" d="M218.383,318.515c-0.654-0.087-1.322-0.132-2.001-0.132h-12.302l-14.359-50.177   c-2.279-7.964-10.58-12.572-18.548-10.294c-7.964,2.279-12.573,10.583-10.294,18.548l14.503,50.682v31.241c0,8.284,6.716,15,15,15   c3.469,0,6.654-1.189,9.195-3.166c1.786,0.75,3.746,1.166,5.805,1.166c5.56,0,10.413-3.025,13.004-7.518L218.383,318.515z"/>
	<path style="fill:#F8D56D;" d="M411.766,383.941H25c-8.284,0-15-6.716-15-15s6.716-15,15-15h386.766c8.284,0,15,6.716,15,15   S420.05,383.941,411.766,383.941z"/>
	<path style="fill:#F8D56D;" d="M421.766,196.221H15c-5.399,0-10.382-2.902-13.046-7.598c-2.665-4.696-2.599-10.462,0.17-15.097   L30,126.882V87.453c0-19.094,15.534-34.628,34.628-34.628h307.509c19.094,0,34.628,15.534,34.628,34.628v39.429l27.876,46.644   c2.77,4.635,2.835,10.4,0.17,15.097C432.148,193.319,427.165,196.221,421.766,196.221z"/>
	<path style="fill:#FFE48E;" d="M218.383,196.221H15c-5.399,0-10.382-2.902-13.046-7.598c-2.665-4.696-2.599-10.462,0.17-15.097   L30,126.882V87.453c0-19.094,15.534-34.628,34.628-34.628h153.754V196.221z"/>
	<g>
		<path style="fill:#E4C565;" d="M409.24,131.383H27.525L2.124,173.706c-2.77,4.635-2.835,10.391-0.17,15.088    c2.664,4.696,7.647,7.589,13.046,7.589h406.766c5.399,0,10.382-2.983,13.046-7.679c2.665-4.696,2.599-10.322-0.17-14.957    L409.24,131.383z"/>
	</g>
	<g>
		<g>
			<path style="fill:#F8D56D;" d="M218.383,131.383H27.525L2.124,173.706c-2.77,4.635-2.835,10.391-0.17,15.088     c2.664,4.696,7.647,7.589,13.046,7.589h203.383V131.383z"/>
		</g>
	</g>
</g>















</svg>
