<?xml version="1.0" encoding="iso-8859-1"?>
<!-- Generator: Adobe Illustrator 19.0.0, SVG Export Plug-In . SVG Version: 6.00 Build 0)  -->
<svg xmlns="http://www.w3.org/2000/svg" xmlns:xlink="http://www.w3.org/1999/xlink" version="1.1" id="Layer_1" x="0px" y="0px" viewBox="0 0 440 440" style="enable-background:new 0 0 440 440;" xml:space="preserve" width="512" height="512">
<g>
	<path style="fill:#646565;" d="M353.5,338h-52l10-5v-63.362c0-40.451-26.067-76.272-64.581-88.64L234.518,177h-76.036   l-12.402,3.999c-38.514,12.368-64.581,48.189-64.581,88.64V389c0,2.761,2.132,5,4.893,5h248.329c1.728,0,3.333-0.892,4.245-2.359   l18.778-30.179c0.493-0.793,0.755-1.708,0.755-2.641V343C358.5,340.239,356.261,338,353.5,338z"/>
	<path style="fill:#7A7B7B;" d="M196.5,177h-38.018l-12.402,3.999c-38.514,12.368-64.581,48.189-64.581,88.64V389   c0,2.761,2.132,5,4.893,5H197L196.5,177z"/>
	<path style="fill:#51A7A6;" d="M273.5,286h-37c-8.284,0-15-6.716-15-15s6.716-15,15-15h37c8.284,0,15,6.716,15,15   S281.784,286,273.5,286z"/>
	<path style="fill:#51A7A6;" d="M196.5,158c-8.284,0-15,6.716-15,15v136c0,8.284,6.716,15,15,15s15-6.716,15-15V173   C211.5,164.716,204.784,158,196.5,158z"/>
	<path style="fill:#51A7A6;" d="M235.5,158c-8.284,0-15,6.716-15,15v6.582l-18.381-6.772c-3.346-1.232-7.021-1.233-10.366-0.003   l-18.253,6.719V173c0-8.284-6.716-15-15-15s-15,6.716-15,15v28.08c0,4.909,2.402,9.508,6.432,12.313   c4.03,2.804,9.177,3.459,13.78,1.753l21.625-8.014l11.59-4.263l33.396,12.289c1.681,0.618,3.433,0.922,5.176,0.922   c3.029,0,6.032-0.918,8.584-2.698c4.021-2.806,6.417-7.399,6.417-12.302V173C250.5,164.716,243.784,158,235.5,158z"/>
	<path style="fill:#42D4CB;" d="M181.5,173v3.581l-8,2.945V173c0-8.284-6.716-15-15-15s-15,6.716-15,15v28.08   c0,4.909,2.402,9.508,6.432,12.313c4.03,2.804,9.177,3.459,13.78,1.753l17.788-6.592V309c0,8.284,6.716,15,15,15V203.027v-31.755   V158C188.216,158,181.5,164.716,181.5,173z"/>
	<path style="fill:#D37C8A;" d="M196.5,31.143c-44.75,0-81.157,34.442-81.157,76.777s36.407,76.777,81.157,76.777   s81.157-34.442,81.157-76.777S241.25,31.143,196.5,31.143z"/>
	<path style="fill:#FE8E9C;" d="M196.5,31.143c-44.75,0-81.157,34.442-81.157,76.777s36.407,76.777,81.157,76.777V31.143z"/>
	<path style="fill:#F8D56D;" d="M211.592,0H121.5c-8.284,0-15,6.448-15,14.732V20c0,33.584,27.323,61,60.908,61H257.5   c8.284,0,15-6.808,15-15.092V60.64C272.5,27.055,245.177,0,211.592,0z"/>
	<path style="fill:#FFE48E;" d="M196.5,0h-75c-8.284,0-15,6.448-15,14.732V20c0,33.584,27.323,61,60.908,61H197L196.5,0z"/>
</g>
<path style="fill:#C6C7C6;" d="M308.5,312h-120c-8.284,0-15,6.716-15,15v98c0,8.284,6.716,15,15,15h120c8.284,0,15-6.716,15-15v-98  C323.5,318.716,316.784,312,308.5,312z"/>
<path style="fill:#DCDCDC;" d="M196.5,312h-8c-8.284,0-15,6.716-15,15v98c0,8.284,6.716,15,15,15h8V312z"/>















</svg>
