<?xml version="1.0" encoding="iso-8859-1"?>
<!-- Generator: Adobe Illustrator 19.0.0, SVG Export Plug-In . SVG Version: 6.00 Build 0)  -->
<svg xmlns="http://www.w3.org/2000/svg" xmlns:xlink="http://www.w3.org/1999/xlink" version="1.1" id="Layer_1" x="0px" y="0px" viewBox="0 0 393.768 393.768" style="enable-background:new 0 0 393.768 393.768;" xml:space="preserve" width="512" height="512">
<g>
	<g>
		<path style="fill:#C6C7C6;" d="M75.884,393.768h241.575c19.489-19,31.649-44.767,31.649-73.71    c0-55.847-45.485-101.003-101.332-101.003l-101.996-0.348c-55.847,0-101.119,45.273-101.119,101.119    c0,28.943,12.159,55.045,31.649,73.478"/>
	</g>
	<g>
		<g>
			<path style="fill:#DCDCDC;" d="M75.884,393.768h121V218.881l-51.104-0.174c-55.847,0-101.119,45.273-101.119,101.119     c0,28.943,12.159,55.045,31.649,73.478"/>
		</g>
	</g>
	<g>
		<path style="fill:#A8A8A8;" d="M209.489,387.818c-8.06-33.494,0.38-69.232,22.577-95.598c0.034-0.04,0.067-0.08,0.1-0.121    l52.626-63.853c0.457-0.555,0.851-1.14,1.216-1.736c-10.168-4.137-21.154-6.676-32.644-7.3l-44.3,53.75    c-1.4,1.664-2.744,3.366-4.057,5.087l-8.124-2.771l-9.299-3.172c-21.907-7.475-36.626-28.048-36.626-51.195    c0-0.744-0.072-1.47-0.177-2.185l-5.001-0.017c-8.559,0-16.867,1.068-24.804,3.07c0.365,35.629,23.14,67.194,56.923,78.72    l11.314,3.86c-12.688,27.698-16.143,59.234-9.136,89.411h16.808h12.825C210.027,391.846,209.973,389.83,209.489,387.818z"/>
	</g>
	<g>
		<path style="fill:#C6C7C6;" d="M196.884,275.276l-9.299-3.172c-21.907-7.475-36.627-28.048-36.627-51.195    c0-0.744-0.072-1.47-0.177-2.185l-5.001-0.017c-8.559,0-16.867,1.068-24.805,3.07c0.365,35.629,23.14,67.194,56.923,78.72    l11.314,3.86c-12.688,27.698-16.143,59.234-9.136,89.411h16.807V275.276z"/>
	</g>
	<g>
		<g>
			<path style="fill:#C6C7C6;" d="M145.564,380.722c-16.265-16.266-25.223-37.892-25.223-60.896c0-8.284-6.716-15-15-15     s-15,6.716-15,15c0,27.31,9.368,53.177,26.577,73.941h32.827C150.5,389.162,149.117,384.274,145.564,380.722z"/>
		</g>
	</g>
	<path style="fill:#A8A8A8;" d="M263.061,86.282L140.399,98.548c-20.733,2.073-39.747-11.666-44.289-32.001l-1.776-7.951   c-4.189-18.756,7.018-37.514,25.519-42.713l0,0C167.616,2.461,217.356-2.513,266.831,1.185l0,0   c19.164,1.433,33.864,17.6,33.471,36.814l-0.166,8.146C299.711,66.977,283.793,84.208,263.061,86.282z"/>
	<path style="fill:#B3B3B3;" d="M196.883,92.899l-56.484,5.648c-20.733,2.073-39.747-11.666-44.289-32.001l-1.776-7.951   c-4.189-18.756,7.018-37.514,25.519-42.713l0,0c25.235-7.092,51.022-11.825,77.031-14.167L196.883,92.899z"/>
	<ellipse style="fill:#D37C8A;" cx="196.884" cy="179.384" rx="66.157" ry="61.777"/>
	<path style="fill:#FE8E9C;" d="M196.884,117.607v123.555c-36.538,0-66.157-27.659-66.157-61.777S160.346,117.607,196.884,117.607z"/>
	<path style="fill:#C6C7C6;" d="M244.21,63.307c-30.823-8.842-63.749-8.842-94.572,0l-13.754,3.877v89.584h122V67.184L244.21,63.307   z"/>
	<path style="fill:#DCDCDC;" d="M196.924,56.675c-15.937,0-31.875,2.21-47.286,6.631l-13.754,3.877v89.584h61L196.924,56.675z"/>
</g>















</svg>
