<?xml version="1.0" encoding="iso-8859-1"?>
<!-- Generator: Adobe Illustrator 19.0.0, SVG Export Plug-In . SVG Version: 6.00 Build 0)  -->
<svg xmlns="http://www.w3.org/2000/svg" xmlns:xlink="http://www.w3.org/1999/xlink" version="1.1" id="Layer_1" x="0px" y="0px" viewBox="0 0 383 383" style="enable-background:new 0 0 383 383;" xml:space="preserve" width="512" height="512">
<g>
	<g>
		<path style="fill:#A8A8A8;" d="M225.5,298h-68v-0.202c8,22.799,8,47.504,0,70.303V368h67.998l0.001,0    c-7.926-22.799-7.999-47.403,0.001-70.202V298z"/>
		<path style="fill:#B3B3B3;" d="M191.5,298h-34v-0.202c8,22.799,8,47.504,0,70.303V368h34V298z"/>
		<g>
			<path style="fill:#C6C7C6;" d="M70.307,159c-0.874,0-1.725-0.26-2.558-0.403l22.404,96.943     c6.195,26.847,29.766,45.46,57.319,45.46h88.059c27.553,0,51.124-18.697,57.319-45.544l22.404-96.886     c-0.833,0.143-1.684,0.43-2.558,0.43H70.307z"/>
		</g>
		<g>
			<path style="fill:#DCDCDC;" d="M70.307,159c-0.874,0-1.725-0.26-2.558-0.403l22.404,96.943     c6.195,26.847,29.766,45.46,57.319,45.46H191.5V159H70.307z"/>
		</g>
		<g>
			<path style="fill:#DCDCDC;" d="M70.307,159c-0.874,0-1.725-0.26-2.558-0.403l22.404,96.943     c6.195,26.847,29.766,45.46,57.319,45.46H191.5V159H70.307z"/>
		</g>
		<path style="fill:#C6C7C6;" d="M242.473,383H140.527c-8.284,0-15-6.716-15-15s6.716-15,15-15h101.945c8.284,0,15,6.716,15,15    S250.757,383,242.473,383z"/>
		<path style="fill:#DCDCDC;" d="M191.5,383h-50.973c-8.284,0-15-6.716-15-15s6.716-15,15-15H191.5V383z"/>
	</g>
	<circle style="fill:#51A7A6;" cx="242.472" cy="96.526" r="65.744"/>
	<g>
		<g>
			<g>
				<circle style="fill:#D37C8A;" cx="191.5" cy="30.782" r="30.782"/>
			</g>
		</g>
	</g>
	<path style="fill:#D37C8A;" d="M191.5,55.013V0c-17,0-30.782,13.781-30.782,30.782c0,1.091,0.059,2.168,0.169,3.23   c-6.412-2.087-13.251-3.23-20.36-3.23c-36.31,0-65.744,29.435-65.744,65.744c0,36.309,29.435,65.744,65.744,65.744   c36.309,0,65.744-29.435,65.744-65.744C206.272,80.781,200.73,66.333,191.5,55.013z"/>
	<path style="fill:#FE8E9C;" d="M191.5,55.013V0c-17,0-30.782,13.781-30.782,30.782c0,1.091,0.059,2.168,0.169,3.23   c-6.412-2.087-13.251-3.23-20.36-3.23c-36.31,0-65.744,29.435-65.744,65.744c0,36.309,29.435,65.744,65.744,65.744   c20.424,0,38.673-9.313,50.731-23.925L191.5,55.013z"/>
	<path style="fill:#A8A8A8;" d="M327.693,148.831c0-8.284-6.716-14.831-15-14.831H70.307c-8.284,0-15,6.547-15,14.831   c0,7.41,5.379,13.635,12.442,14.851c0.833,0.143,1.684,0.318,2.558,0.318h242.387c0.874,0,1.725-0.175,2.558-0.318   C322.315,162.465,327.693,156.241,327.693,148.831z"/>
	<path style="fill:#B3B3B3;" d="M191.5,134H70.307c-8.284,0-15,6.547-15,14.831c0,7.41,5.379,13.635,12.442,14.851   c0.833,0.143,1.684,0.318,2.558,0.318H191.5V134z"/>
</g>















</svg>
