<?xml version="1.0" encoding="iso-8859-1"?>
<!-- Generator: Adobe Illustrator 19.0.0, SVG Export Plug-In . SVG Version: 6.00 Build 0)  -->
<svg xmlns="http://www.w3.org/2000/svg" xmlns:xlink="http://www.w3.org/1999/xlink" version="1.1" id="Layer_1" x="0px" y="0px" viewBox="0 0 402.549 402.549" style="enable-background:new 0 0 402.549 402.549;" xml:space="preserve" width="512" height="512">
<g>
	<path style="fill:#FE8E9C;" d="M253.629,245.605c-3.236,0-6.496-1.042-9.241-3.192c-6.521-5.109-7.666-14.537-2.557-21.059   l133.91-170.93c5.107-6.521,14.538-7.666,21.059-2.558c6.521,5.109,7.666,14.538,2.557,21.059l-133.91,170.93   C262.488,243.631,258.081,245.605,253.629,245.605z"/>
	<path style="fill:#F8D56D;" d="M295.414,216.005c-3.236,0-6.496-1.042-9.24-3.192l-23.835-18.672   c-6.521-5.109-7.667-14.537-2.558-21.059c5.106-6.52,14.536-7.667,21.058-2.558l23.835,18.672   c6.521,5.109,7.667,14.537,2.558,21.059C304.273,214.032,299.866,216.005,295.414,216.005z"/>
	<path style="fill:#F8D56D;" d="M271.353,271.776c-3.235,0-6.495-1.042-9.24-3.192l-48.164-37.732   c-6.521-5.109-7.666-14.537-2.557-21.059c5.107-6.52,14.535-7.667,21.059-2.558l48.164,37.732   c6.521,5.109,7.666,14.537,2.557,21.059C280.213,269.802,275.806,271.776,271.353,271.776z"/>
	<path style="fill:#E4C565;" d="M289.465,248.655c-3.235,0-6.495-1.042-9.24-3.192l-48.164-37.732   c-6.521-5.109-7.666-14.537-2.557-21.059c5.107-6.52,14.535-7.667,21.059-2.558l48.164,37.732   c6.521,5.109,7.666,14.537,2.557,21.059C298.325,246.682,293.918,248.655,289.465,248.655z"/>
	<path style="fill:#E4C565;" d="M287.465,221.054h-80.963h-77.966c-25.364,0-46,20.67-46,46.034c0,8.284,6.716,14.983,15,14.983   s15-7.017,15-15.017h94.468h96.461c0,8,6.716,15.034,15,15.034s15-6.733,15-15.017   C333.465,241.707,312.829,221.054,287.465,221.054z"/>
	<path style="fill:#F8D56D;" d="M207,221.054h-78.465c-25.364,0-46,20.67-46,46.034c0,8.284,6.716,14.983,15,14.983   s15-7.017,15-15.017h94.468L207,221.054z"/>
	<g>
		<path style="fill:#F8D56D;" d="M29,310.123v32.753c0,8.284,6.716,15,15,15s15-6.716,15-15v-31.822h299.772    c2.448,5,7.54,8.386,13.442,8.386c8.067,0,14.628-6.401,14.968-14.386H29.267C29.093,306.72,29,308.411,29,310.123z"/>
	</g>
	<path style="fill:#E4C565;" d="M344.888,262.054H76.785C50.317,262.054,29,283.655,29,310.123v32.753c0,8.284,6.716,15,15,15   s15-6.716,15-15v-31.822h299.772c2.448,5,7.54,8.386,13.442,8.386c8.284,0,15-6.745,15-15.029   C387.215,281.071,368.227,262.054,344.888,262.054z"/>
	<path style="fill:#F8D56D;" d="M207,262.054H76.785C50.317,262.054,29,283.655,29,310.123v32.753c0,8.284,6.716,15,15,15   s15-6.716,15-15v-31.822h148V262.054z"/>
	<g>
		<path style="fill:#F8D56D;" d="M87.131,247.054c-2.384,4.913-3.912,10.311-4.408,16h250.556c-0.495-5.689-2.02-11.088-4.402-16    H87.131z"/>
	</g>
	<g>
		<path style="fill:#FFE48E;" d="M87.131,247.054c-2.384,4.913-3.912,10.311-4.408,16H207l0.004-16H87.131z"/>
	</g>
	<path style="fill:#F8D56D;" d="M380.169,281.054H38.738c-5.152,6.815-8.537,15.046-9.471,24h357.916   c0.009-0.215,0.032-0.426,0.032-0.643C387.215,295.786,384.616,287.756,380.169,281.054z"/>
	<path style="fill:#FFE48E;" d="M207,281.054H38.738c-5.152,6.815-8.537,15.046-9.471,24H207V281.054z"/>
	<polygon style="fill:#C6C7C6;" points="57.075,312.054 94.506,353.054 307.101,353.054 344.531,312.054  "/>
	<polygon style="fill:#DCDCDC;" points="57.075,312.054 94.506,353.054 207,353.054 207.072,312.054  "/>
	<path style="fill:#A8A8A8;" d="M384,321.054H15c-8.284,0-15-6.716-15-15s6.716-15,15-15h369c8.284,0,15,6.716,15,15   S392.284,321.054,384,321.054z"/>
	<path style="fill:#B3B3B3;" d="M207,321.054H15c-8.284,0-15-6.716-15-15s6.716-15,15-15h192L207,321.054z"/>
</g>















</svg>
