<?xml version="1.0" encoding="iso-8859-1"?>
<!-- Generator: Adobe Illustrator 19.0.0, SVG Export Plug-In . SVG Version: 6.00 Build 0)  -->
<svg xmlns="http://www.w3.org/2000/svg" xmlns:xlink="http://www.w3.org/1999/xlink" version="1.1" id="Layer_1" x="0px" y="0px" viewBox="0 0 399 399" style="enable-background:new 0 0 399 399;" xml:space="preserve" width="512" height="512">
<g>
	<path style="fill:#646565;" d="M315.701,198.39c-3.923,0-7.84-1.529-10.782-4.57c-5.761-5.954-5.604-15.45,0.351-21.21   l15.777-15.264c16.914-16.362,42.099-21.65,64.166-13.471c7.769,2.879,11.731,11.51,8.852,19.278   c-2.878,7.767-11.51,11.731-19.277,8.852c-11.308-4.192-24.214-1.481-32.881,6.903l-15.777,15.263   C323.217,196.988,319.456,198.39,315.701,198.39z"/>
	<path style="fill:#D37C8A;" d="M358.514,202.312c-0.427-4.231-2.63-8.083-6.061-10.595l-48.819-35.757   c-5.832-4.272-13.88-3.776-19.144,1.178l-47.14,44.366c-10.886,10.246-25.101,16.351-40.025,17.19l-124.151,6.989   c-5.573,0.313-10.511,3.696-12.817,8.779c-2.306,5.083-1.599,10.966,1.835,15.365c19.431,24.895,48.686,39.112,80.264,39.112   h62.696c51.64,0,101.173-21.86,135.899-60.08l13.642-14.985C357.552,210.726,358.941,206.543,358.514,202.312z"/>
	<path style="fill:#FE8E9C;" d="M215.317,215.022c-5.751,2.074-11.811,3.325-17.991,3.673l-124.151,6.989   c-5.573,0.313-10.511,3.696-12.817,8.779c-2.306,5.083-1.599,10.966,1.835,15.365c19.431,24.895,48.686,39.112,80.264,39.112   h62.696c3.397,0,6.785-0.095,10.161-0.282L215.317,215.022z"/>
	<path style="fill:#51A7A6;" d="M230.805,181.698c-2.748,0-5.53-0.755-8.022-2.337c-6.995-4.439-9.066-13.708-4.628-20.702   c1.021-1.61,0.633-3.112,0.311-3.864c-0.323-0.752-1.144-2.068-3.014-2.438c-13.562-2.676-24.888-11.868-30.299-24.588   c-5.41-12.72-4.177-27.255,3.302-38.88l5.75-8.941c4.482-6.969,13.764-8.982,20.73-4.502c6.968,4.481,8.983,13.763,4.502,20.73   l-5.751,8.942c-3.024,4.702-1.655,9.195-0.927,10.909c0.364,0.857,1.118,2.311,2.467,3.686s3.292,2.671,6.034,3.212   c11.066,2.184,20.328,9.677,24.775,20.043c4.446,10.366,3.493,22.241-2.551,31.765C240.627,179.235,235.77,181.698,230.805,181.698   z"/>
	<path style="fill:#42D4CB;" d="M214.75,119.167c-1.038-1.202-1.675-2.396-1.991-3.141c-0.729-1.713-2.098-6.207,0.927-10.909   l5.751-8.942c4.481-6.967,2.466-16.249-4.502-20.73c-6.967-4.479-16.248-2.467-20.73,4.502l-5.75,8.941   c-7.479,11.625-8.712,26.16-3.302,38.88c5.317,12.499,16.35,21.578,29.598,24.429V119.167z"/>
	<path style="fill:#42D4CB;" d="M176.458,205.039c-2.479,0-4.993-0.616-7.312-1.913c-7.229-4.045-9.811-13.186-5.765-20.415   c0.931-1.664,0.46-3.142,0.097-3.875c-0.364-0.733-1.256-2.002-3.144-2.268c-13.689-1.922-25.507-10.474-31.612-22.876   c-6.105-12.401-5.676-26.982,1.147-39.002l5.248-9.246c4.089-7.206,13.247-9.729,20.449-5.641   c7.205,4.089,9.73,13.245,5.641,20.449l-5.248,9.246c-2.76,4.862-1.145,9.272-0.322,10.943c0.823,1.671,3.334,5.641,8.869,6.418   c11.171,1.569,20.833,8.538,25.846,18.643c5.014,10.105,4.718,22.014-0.791,31.858   C186.813,202.273,181.713,205.039,176.458,205.039z"/>
	<polygon style="fill:#C6C7C6;" points="57.075,284.939 94.506,325.939 307.101,325.939 344.531,284.939  "/>
	<polygon style="fill:#DCDCDC;" points="57.075,284.939 94.506,325.939 215,325.939 215.072,284.939  "/>
	<path style="fill:#A8A8A8;" d="M384,293.939H15c-8.284,0-15-6.716-15-15s6.716-15,15-15h369c8.284,0,15,6.716,15,15   S392.284,293.939,384,293.939z"/>
	<path style="fill:#B3B3B3;" d="M215,293.939H15c-8.284,0-15-6.716-15-15s6.716-15,15-15h200L215,293.939z"/>
</g>















</svg>
