<?xml version="1.0" encoding="iso-8859-1"?>
<!-- Generator: Adobe Illustrator 19.0.0, SVG Export Plug-In . SVG Version: 6.00 Build 0)  -->
<svg xmlns="http://www.w3.org/2000/svg" xmlns:xlink="http://www.w3.org/1999/xlink" version="1.1" id="Layer_1" x="0px" y="0px" viewBox="0 0 407.859 407.859" style="enable-background:new 0 0 407.859 407.859;" xml:space="preserve" width="512" height="512">
<g>
	<g>
		<path style="fill:#42D4CB;" d="M208.11,168.666c-10.563-15.944-24.826-29.556-41.247-39.362l-55.262-33.003    c-4.953-2.958-11.166-2.813-15.976,0.374c-4.81,3.187-7.366,8.85-6.573,14.565l8.843,63.756c2.628,18.944,9.6,37.385,20.164,53.33    c8.48,12.8,22.534,19.739,36.848,19.739c8.365,0,16.82-2.371,24.3-7.326l16.489-10.924v0    C215.978,216.378,221.547,188.947,208.11,168.666z"/>
		
			<line style="fill:#FFFFFF;stroke:#000000;stroke-width:30;stroke-linecap:round;stroke-linejoin:round;stroke-miterlimit:10;" x1="129.472" y1="228.769" x2="152.182" y2="240.154"/>
		<path style="fill:#42D4CB;" d="M155.708,203.178c-3.174-11.349-10.579-20.783-20.849-26.563c-16.667-9.381-35.565-15-54.65-16.249    l-64.229-4.204c-5.752-0.378-11.221,2.583-14.051,7.61c-2.83,5.028-2.525,11.234,0.784,15.961l36.918,52.726    c10.969,15.667,25.577,28.907,42.246,38.289c6.824,3.841,14.242,5.664,21.566,5.664c15.429,0,30.432-8.096,38.523-22.472    l9.702-17.237C157.447,226.434,158.882,214.528,155.708,203.178z"/>
		<path style="fill:#E4C565;" d="M369.518,239.948c-11.392-0.079-20.715-9.176-20.715-20.569v-1.247    c0-11.393-9.322-20.49-20.715-20.569c-11.292-0.079-20.422-9.257-20.422-20.568v-2.493c0-11.36-9.209-20.568-20.568-20.568H259.05    v-12.466c0-12.392-10.046-22.438-22.438-22.438h0c-12.392,0-22.438,10.046-22.438,22.438v12.466h-28.048    c-11.36,0-20.568,9.209-20.568,20.568v2.493c0,11.393-9.322,20.49-20.715,20.569c-11.292,0.079-20.422,9.257-20.422,20.568v1.247    c0,11.393-9.322,20.49-20.715,20.569c-11.292,0.079-20.422,9.257-20.422,20.568v10.596H389.94v-10.596    C389.94,249.205,380.81,240.026,369.518,239.948z"/>
		<path style="fill:#F8D56D;" d="M203.859,153.934h-17.733c-11.36,0-20.568,9.209-20.568,20.568v2.493    c0,11.393-9.322,20.49-20.715,20.569c-11.292,0.079-20.422,9.257-20.422,20.568v1.247c0,11.393-9.322,20.49-20.715,20.569    c-11.292,0.079-20.422,9.257-20.422,20.568v10.596h120.575L203.859,153.934z"/>
		<g>
			<g>
				<path style="fill:#C6C7C6;" d="M240.859,246.679h-7c-8.284,0-15-6.716-15-15s6.716-15,15-15h7c8.284,0,15,6.716,15,15      S249.143,246.679,240.859,246.679z"/>
				<path style="fill:#DCDCDC;" d="M188.859,246.679h-7c-8.284,0-15-6.716-15-15s6.716-15,15-15h7c8.284,0,15,6.716,15,15      S197.143,246.679,188.859,246.679z"/>
				<path style="fill:#C6C7C6;" d="M291.859,246.679h-6c-8.284,0-15-6.716-15-15s6.716-15,15-15h6c8.284,0,15,6.716,15,15      S300.143,246.679,291.859,246.679z"/>
			</g>
			<g>
				<path style="fill:#C6C7C6;" d="M268.859,212.679h-7c-8.284,0-15-6.716-15-15s6.716-15,15-15h7c8.284,0,15,6.716,15,15      S277.143,212.679,268.859,212.679z"/>
				<path style="fill:#C6C7C6;" d="M213.859,212.679h-7c-8.284,0-15-6.716-15-15s6.716-15,15-15h7c8.284,0,15,6.716,15,15      S222.143,212.679,213.859,212.679z"/>
				<path style="fill:#DCDCDC;" d="M203.858,212.379c-6.847-1.39-12-7.443-12-14.7c0-7.249,5.142-13.297,11.977-14.695      L203.858,212.379z"/>
			</g>
		</g>
	</g>
	<polygon style="fill:#C6C7C6;" points="65.933,272.679 103.364,313.679 215.859,313.679 315.959,313.679 353.39,272.679    216.344,272.679  "/>
	<polygon style="fill:#DCDCDC;" points="65.933,272.679 103.364,313.679 203.811,313.679 203.883,272.679  "/>
	<path style="fill:#A8A8A8;" d="M392.859,281.679h-369c-8.284,0-15-6.716-15-15s6.716-15,15-15h369c8.284,0,15,6.716,15,15   S401.143,281.679,392.859,281.679z"/>
	<path style="fill:#B3B3B3;" d="M203.859,281.679h-180c-8.284,0-15-6.716-15-15s6.716-15,15-15h180L203.859,281.679z"/>
</g>















</svg>
