<?xml version="1.0" encoding="iso-8859-1"?>
<!-- Generator: Adobe Illustrator 19.0.0, SVG Export Plug-In . SVG Version: 6.00 Build 0)  -->
<svg xmlns="http://www.w3.org/2000/svg" xmlns:xlink="http://www.w3.org/1999/xlink" version="1.1" id="Layer_1" x="0px" y="0px" viewBox="0 0 379 379" style="enable-background:new 0 0 379 379;" xml:space="preserve" width="512" height="512">
<g>
	<g>
		<g>
			<path style="fill:#51A7A6;" d="M340.515,112.728c-79.41-79.41-208.62-79.411-288.03,0c-5.858,5.858-5.858,15.355,0,21.213     c2.929,2.929,6.768,4.394,10.606,4.394s7.678-1.464,10.606-4.394c67.713-67.713,177.891-67.714,245.604,0     c5.857,5.858,15.355,5.858,21.213,0C346.373,128.083,346.373,118.586,340.515,112.728z"/>
			<path style="fill:#51A7A6;" d="M196.5,116.688c-37.464,0-72.649,14.554-99.076,40.98c-5.858,5.858-5.858,15.355,0,21.213     c2.929,2.929,6.768,4.394,10.606,4.394s7.678-1.464,10.606-4.394c42.934-42.934,112.792-42.933,155.726,0     c5.857,5.858,15.355,5.858,21.213,0c5.858-5.858,5.858-15.355,0-21.213C269.149,131.241,233.964,116.688,196.5,116.688z"/>
			<path style="fill:#51A7A6;" d="M142.864,202.607c-5.858,5.857-5.858,15.354,0,21.213s15.355,5.858,21.213,0     c18.153-18.152,47.692-18.153,65.846,0c2.929,2.929,6.768,4.394,10.606,4.394s7.678-1.465,10.607-4.394     c5.857-5.857,5.857-15.355,0-21.213C221.286,172.758,172.715,172.757,142.864,202.607z"/>
		</g>
	</g>
	<g>
		<path style="fill:#42D4CB;" d="M195.243,53.185c-51.735,0.316-103.372,20.157-142.758,59.543c-5.858,5.858-5.858,15.355,0,21.213    c2.929,2.929,6.768,4.394,10.606,4.394s7.678-1.464,10.606-4.394c33.538-33.538,77.493-50.454,121.545-50.77V53.185z"/>
		<path style="fill:#42D4CB;" d="M195.243,116.703c-36.993,0.322-71.689,14.835-97.819,40.965c-5.858,5.858-5.858,15.355,0,21.213    c2.929,2.929,6.768,4.394,10.606,4.394s7.678-1.464,10.606-4.394c21.148-21.148,48.829-31.871,76.606-32.185V116.703z"/>
		<path style="fill:#42D4CB;" d="M195.243,180.262c-19.015,0.433-37.9,7.866-52.379,22.345c-5.858,5.857-5.858,15.354,0,21.213    s15.355,5.858,21.213,0c8.631-8.63,19.836-13.149,31.167-13.573V180.262z"/>
	</g>
	<polygon style="fill:#C6C7C6;" points="57.075,284.83 94.506,325.83 197,325.83 287.101,325.83 324.531,284.83 197.486,284.83  "/>
	<polygon style="fill:#DCDCDC;" points="57.075,284.83 94.506,325.83 197,325.83 197.072,284.83  "/>
	<path style="fill:#A8A8A8;" d="M364,293.83H15c-8.284,0-15-6.716-15-15s6.716-15,15-15h349c8.284,0,15,6.716,15,15   S372.284,293.83,364,293.83z"/>
	<path style="fill:#B3B3B3;" d="M197,293.83H15c-8.284,0-15-6.716-15-15s6.716-15,15-15h182L197,293.83z"/>
</g>















</svg>
